<svg xmlns="http://www.w3.org/2000/svg" width="15" height="24" viewBox="0 0 15 21">
    <path fill="#6c7f93" d="M 5.2 17.6 C 5.2 18.92 4.12 20 2.8 20 S 0.4 18.92 0.4 17.6 S 1.48 15.2 2.8 15.2 S 5.2 16.28 5.2 17.6 Z M 2.8 8 C 1.48 8 0.4 9.08 0.4 10.4 S 1.48 12.8 2.8 12.8 S 5.2 11.72 5.2 10.4 S 4.12 8 2.8 8 Z M 2.8 0.8 C 1.48 0.8 0.4 1.88 0.4 3.2 S 1.48 5.6 2.8 5.6 S 5.2 4.52 5.2 3.2 S 4.12 0.8 2.8 0.8 Z M 10 5.6 C 11.32 5.6 12.4 4.52 12.4 3.2 S 11.32 0.8 10 0.8 S 7.6 1.88 7.6 3.2 S 8.68 5.6 10 5.6 Z M 10 8 C 8.68 8 7.6 9.08 7.6 10.4 S 8.68 12.8 10 12.8 S 12.4 11.72 12.4 10.4 S 11.32 8 10 8 Z M 10 15.2 C 8.68 15.2 7.6 16.28 7.6 17.6 S 8.68 20 10 20 S 12.4 18.92 12.4 17.6 S 11.32 15.2 10 15.2 Z"/>
</svg>
