<svg width="28" height="24" viewBox="0 0 28 24" fill="none" xmlns="http://www.w3.org/2000/svg">
<path d="M26.5 16H14V7.9931H26.5C26.8978 7.9931 27.2794 8.15114 27.5607 8.43244C27.842 8.71375 28 9.09528 28 9.4931V14.5C28 14.8978 27.842 15.2793 27.5607 15.5606C27.2794 15.842 26.8978 16 26.5 16Z" fill="#E4ECFF"/>
<path d="M11.4375 23.5575L0.437498 13.0625C0.155987 12.7805 -0.0021286 12.3984 -0.0021286 12C-0.0021286 11.6016 0.155987 11.2194 0.437498 10.9375L11.4375 0.443103C12.3812 -0.501272 14 0.168103 14 1.5056V22.495C14 23.8337 12.39 24.5031 11.4375 23.5575Z" fill="#4A84F2"/>
</svg>
