<svg width="24" height="29" viewBox="0 0 24 29" fill="none" xmlns="http://www.w3.org/2000/svg">
<path d="M16 1.5V14H7.9925V1.5C7.9925 1.10218 8.15054 0.720644 8.43184 0.43934C8.71314 0.158035 9.09468 0 9.4925 0H14.5C14.8978 0 15.2794 0.158035 15.5607 0.43934C15.842 0.720644 16 1.10218 16 1.5Z" fill="#E2FEF0"/>
<path d="M23.5581 16.5625L13.0625 27.5625C12.7803 27.8436 12.3983 28.0014 12 28.0014C11.6017 28.0014 11.2197 27.8436 10.9375 27.5625L0.441875 16.5625C-0.5025 15.6194 0.166875 14 1.50438 14H22.4956C23.8344 14 24.5 15.61 23.5581 16.5625Z" fill="#4BB785"/>
</svg>
