<svg xmlns="http://www.w3.org/2000/svg" xml:space="preserve" viewBox="0 0 512 512" width="24" height="24">
  <path fill="#162b4a" d="M219.835 512H43.489c-7.855 0-14.222-6.367-14.222-14.222s6.367-14.222 14.222-14.222h162.125V28.444H57.712v412.444c0 7.855-6.367 14.222-14.222 14.222s-14.222-6.367-14.222-14.222V14.222C29.267 6.367 35.634 0 43.489 0h176.347c7.855 0 14.222 6.367 14.222 14.222v483.556c-.001 7.855-6.368 14.222-14.223 14.222z"/>
  <path fill="#162b4a" d="M162.946 455.111h-62.568c-7.855 0-14.222-6.367-14.222-14.222V71.111c0-7.855 6.367-14.222 14.222-14.222h62.569c7.855 0 14.222 6.367 14.222 14.222v369.778c-.001 7.855-6.368 14.222-14.223 14.222zm-48.345-28.444h34.125V85.333h-34.125v341.334zM468.509 512H292.164c-7.855 0-14.222-6.367-14.222-14.222s6.367-14.222 14.222-14.222h162.125V28.444H306.386v412.444c0 7.855-6.367 14.222-14.222 14.222-7.855 0-14.222-6.367-14.222-14.222V14.222C277.941 6.367 284.309 0 292.164 0h176.347c7.855 0 14.222 6.367 14.222 14.222v483.556c-.002 7.855-6.369 14.222-14.224 14.222z"/>
  <path fill="#162b4a" d="M411.62 455.111h-62.569c-7.855 0-14.222-6.367-14.222-14.222V71.111c0-7.855 6.367-14.222 14.222-14.222h62.569c7.855 0 14.222 6.367 14.222 14.222v369.778c0 7.855-6.367 14.222-14.222 14.222zm-48.345-28.444H397.4V85.333h-34.125v341.334z"/>
</svg>